<svg width="21" height="24" viewBox="0 0 21 24" fill="none" xmlns="http://www.w3.org/2000/svg">
<rect width="21" height="24" fill="#1E1E1E"/>
<rect x="-131" y="-625" width="393" height="852" rx="30" fill="white"/>
<rect x="-98" y="-13" width="328" height="50" rx="10" fill="black"/>
<path fill-rule="evenodd" clip-rule="evenodd" d="M13.8852 3.83148C14.7601 2.81748 15.3498 1.40519 15.1884 0C13.9277 0.0480004 12.4024 0.805384 11.4983 1.81818C10.6865 2.71698 9.9779 4.15311 10.1684 5.53072C11.5748 5.6351 13.0103 4.84667 13.8852 3.83148ZM17.0389 12.7501C17.0741 16.3825 20.3638 17.5908 20.4002 17.6064C20.3735 17.6916 19.8748 19.3281 18.6674 21.0201C17.6226 22.4817 16.539 23.9374 14.8317 23.9686C13.1547 23.9986 12.6147 23.0158 10.6963 23.0158C8.77901 23.0158 8.17957 23.9373 6.59238 23.9985C4.94452 24.0573 3.6886 22.4171 2.63654 20.9604C0.483886 17.9808 -1.16033 12.5402 1.04814 8.86825C2.1451 7.04545 4.10481 5.8894 6.2332 5.8606C7.85072 5.8306 9.37845 6.90358 10.3674 6.90358C11.3564 6.90358 13.2129 5.61358 15.1642 5.80318C15.9808 5.83558 18.2742 6.11868 19.7461 8.18386C19.6272 8.25467 17.0098 9.71414 17.0389 12.7501Z" fill="white"/>
</svg>
