<svg width="24" height="24" viewBox="0 0 24 24" fill="none" xmlns="http://www.w3.org/2000/svg">
<path fill-rule="evenodd" clip-rule="evenodd" d="M4.91606 12C4.91606 11.2205 5.04552 10.4732 5.27658 9.77232L1.23229 6.68396C0.444084 8.28432 0 10.0876 0 12C0 13.9107 0.443538 15.7129 1.23065 17.3121L5.27275 14.2178C5.04388 13.5201 4.91606 12.7756 4.91606 12Z" fill="#FBBC05"/>
<path fill-rule="evenodd" clip-rule="evenodd" d="M12.0171 4.90909C13.7104 4.90909 15.2398 5.50909 16.4415 6.49091L19.9374 3C17.8071 1.14545 15.0759 0 12.0171 0C7.26813 0 3.18671 2.71582 1.2323 6.684L5.27658 9.77237C6.20845 6.94364 8.86476 4.90909 12.0171 4.90909Z" fill="#EB4335"/>
<path fill-rule="evenodd" clip-rule="evenodd" d="M12.0171 19.0909C8.86476 19.0909 6.20845 17.0564 5.27658 14.2277L1.2323 17.3155C3.18671 21.2842 7.26813 24 12.0171 24C14.9481 24 17.7465 22.9593 19.8467 21.0093L16.0078 18.0415C14.9246 18.7238 13.5607 19.0909 12.0171 19.0909Z" fill="#34A853"/>
<path fill-rule="evenodd" clip-rule="evenodd" d="M23.4879 12.0001C23.4879 11.291 23.3787 10.5273 23.2148 9.81824H12.0171V14.4546H18.4626C18.1403 16.0353 17.2631 17.2506 16.0078 18.0415L19.8467 21.0093C22.053 18.9617 23.4879 15.9115 23.4879 12.0001Z" fill="#4285F4"/>
</svg>
